# xmcd CD database file
#
# Track frame offsets:
#	150
#	17816
#	42064
#	55199
#	81502
#	97638
#	118452
#	131297
#	152487
#	164907
#	199695
#
# Disc length: 2775 seconds
#
# Revision: 1
# Processed by: cddbd v1.5.1PL0 Copyright (c) Steve Scherf et al.
# Submitted via: CDex 1.51
#
DISCID=8b0ad50b
DTITLE=motociclica tellaci - sdreng - 1
DYEAR=2004
DGENRE=Jazz
TTITLE0=cavar
TTITLE1=cancion desperada
TTITLE2=mucho cacio
TTITLE3=la chuscada
TTITLE4=capri ii
TTITLE5=mombasa
TTITLE6=nadal a oaxaca
TTITLE7=ciardino
TTITLE8=cantares
TTITLE9=besugas
TTITLE10=valzerino
EXTD=YEAR: 2004
EXTT0=
EXTT1=
EXTT2=
EXTT3=
EXTT4=
EXTT5=
EXTT6=
EXTT7=
EXTT8=
EXTT9=
EXTT10=
PLAYORDER=
